<?xml version="1.0" standalone="no"?><!DOCTYPE svg PUBLIC "-//W3C//DTD SVG 1.1//EN" "http://www.w3.org/Graphics/SVG/1.1/DTD/svg11.dtd"><svg t="1674029289284" class="icon" viewBox="0 0 1024 1024" version="1.1" xmlns="http://www.w3.org/2000/svg" p-id="5457" xmlns:xlink="http://www.w3.org/1999/xlink" width="200" height="200"><path d="M512 102.4L165.4272 233.984v229.632a404.3776 404.3776 0 0 0 166.5536 327.0656L512 921.6l180.0704-131.0208a404.48 404.48 0 0 0 166.5536-326.9632V234.0864L512 102.4z m295.2704 361.216a354.2016 354.2016 0 0 1-145.408 285.4912L512 858.1632l-149.8624-109.0048a354.1504 354.1504 0 0 1-145.408-285.5424V269.3632L512 157.2864l295.2704 112.2304v194.0992z" p-id="5458"></path><path d="M397.6192 415.1808c0 53.8112 37.3248 98.6624 87.3984 110.848v170.7008a26.624 26.624 0 0 0 26.5728 26.5728h0.9216a26.624 26.624 0 0 0 26.5728-26.5728v-61.6448h41.8816a26.624 26.624 0 0 0 26.5728-26.5728v-0.9216a26.624 26.624 0 0 0-26.5728-26.5728h-41.8816v-55.04a114.2272 114.2272 0 0 0-26.9824-225.2288 114.432 114.432 0 0 0-114.4832 114.432zM512 351.9488c34.8672 0 63.1808 28.3648 63.1808 63.1808 0 29.0304-19.8656 54.1696-48.2816 61.0816L512 479.8976l-14.8992-3.6352a62.8224 62.8224 0 0 1-48.2816-61.0816c0-34.8672 28.3136-63.232 63.1808-63.232z" p-id="5459"></path></svg>