<?xml version="1.0" standalone="no"?><!DOCTYPE svg PUBLIC "-//W3C//DTD SVG 1.1//EN" "http://www.w3.org/Graphics/SVG/1.1/DTD/svg11.dtd"><svg t="1674114072856" class="icon" viewBox="0 0 1024 1024" version="1.1" xmlns="http://www.w3.org/2000/svg" p-id="36268" xmlns:xlink="http://www.w3.org/1999/xlink" width="300" height="300"><path d="M512 1024C229.2224 1024 0 794.7776 0 512S229.2224 0 512 0s512 229.2224 512 512-229.2224 512-512 512z m0-998.4C243.3792 25.6 25.6 243.3792 25.6 512s217.7792 486.4 486.4 486.4 486.4-217.7792 486.4-486.4S780.6208 25.6 512 25.6z" fill="#e6e6e6" p-id="36269"></path><path d="M512 1024C229.2224 1024 0 794.7776 0 512S229.2224 0 512 0s512 229.2224 512 512-229.2224 512-512 512z m0-998.4C243.3792 25.6 25.6 243.3792 25.6 512s217.7792 486.4 486.4 486.4 486.4-217.7792 486.4-486.4S780.6208 25.6 512 25.6z" fill="#e6e6e6" p-id="36270"></path><path d="M721.92 768c-39.0912 0-71.68-32.5888-71.68-71.68 0-26.0608 14.6688-50.5088 35.84-61.9008-21.1712-65.1776-76.5696-110.7968-143.36-117.2992v109.1584c32.5888 8.1408 55.3984 35.84 55.3984 70.0416 0 39.0912-32.5888 71.68-71.68 71.68-39.1168 0-71.68-32.5888-71.68-71.68 0-34.2016 24.4224-63.5392 57.0112-70.0416V517.12c-66.7904 6.5024-123.8016 52.1216-144.9984 117.2992 19.5584 11.392 34.2272 35.84 34.2272 61.9008 0 39.0912-32.5888 71.68-71.68 71.68C290.2016 768 256 735.4112 256 696.32s32.5888-71.68 71.68-71.68h4.8896c24.4224-78.208 94.4896-133.5808 175.9488-140.1088v-48.8704c-48.8704-8.1408-86.3488-50.5088-86.3488-100.992C422.1696 276.0192 467.7888 230.4 524.8 230.4a102.2208 102.2208 0 0 1 102.6304 102.6304c0 50.5088-35.84 94.4896-86.3488 101.0176v48.8704c81.4592 6.5024 149.888 61.9008 175.9488 140.0832h4.8896c39.0912 0 71.68 32.5888 71.68 71.68C793.6 735.4112 761.0112 768 721.92 768z m0-112.4096c-21.1712 0-39.0912 17.92-39.0912 39.0912 0 21.1968 17.92 39.1168 39.0912 39.1168s39.0912-17.92 39.0912-39.1168c0-21.1712-17.92-39.0912-39.0912-39.0912z m-197.12 0c-21.1712 0-39.0912 17.92-39.0912 39.0912 0 21.1968 17.92 39.1168 39.0912 39.1168s39.0912-17.92 39.0912-39.1168c0-21.1712-17.92-39.0912-39.0912-39.0912z m-197.12 0c-21.1712 0-39.0912 17.92-39.0912 39.0912 0 21.1968 17.92 40.7296 39.0912 40.7296s39.0912-17.92 39.0912-39.0912-16.2816-40.7296-39.0912-40.7296z m197.12-392.6016a69.5296 69.5296 0 0 0-70.0416 70.0416 69.5296 69.5296 0 0 0 70.0416 70.0416 69.5296 69.5296 0 0 0 70.0416-70.0416 69.5296 69.5296 0 0 0-70.0416-70.0416z" fill="#e6e6e6" p-id="36271"></path></svg>