<?xml version="1.0" standalone="no"?><!DOCTYPE svg PUBLIC "-//W3C//DTD SVG 1.1//EN" "http://www.w3.org/Graphics/SVG/1.1/DTD/svg11.dtd"><svg t="1674030364079" class="icon" viewBox="0 0 1024 1024" version="1.1" xmlns="http://www.w3.org/2000/svg" p-id="21793" xmlns:xlink="http://www.w3.org/1999/xlink" width="200" height="200"><path d="M972.8 358.4h-256V51.2a51.2 51.2 0 0 0-51.2-51.2H51.2a51.2 51.2 0 0 0-51.2 51.2v563.2a51.2 51.2 0 0 0 51.2 51.2h256v307.2a51.2 51.2 0 0 0 51.2 51.2h614.4a51.2 51.2 0 0 0 51.2-51.2V409.6a51.2 51.2 0 0 0-51.2-51.2zM102.4 563.2V102.4h512v256H358.4a51.2 51.2 0 0 0-51.2 51.2v153.6z m512-102.4v102.4H409.6V460.8z m307.2 460.8H409.6v-256h256a51.2 51.2 0 0 0 51.2-51.2V460.8h204.8z" fill="#dbdbdb" p-id="21794"></path></svg>